<svg id="visual" viewBox="0 0 1920 1080" width="1920" height="1080" xmlns="http://www.w3.org/2000/svg" xmlns:xlink="http://www.w3.org/1999/xlink" version="1.1"><rect x="0" y="0" width="1920" height="1080" fill="#232946"></rect><path d="M0 346L45.7 352.7C91.3 359.3 182.7 372.7 274.2 358C365.7 343.3 457.3 300.7 548.8 268.3C640.3 236 731.7 214 823 222.7C914.3 231.3 1005.7 270.7 1097 294C1188.3 317.3 1279.7 324.7 1371.2 325.2C1462.7 325.7 1554.3 319.3 1645.8 307.7C1737.3 296 1828.7 279 1874.3 270.5L1920 262L1920 0L1874.3 0C1828.7 0 1737.3 0 1645.8 0C1554.3 0 1462.7 0 1371.2 0C1279.7 0 1188.3 0 1097 0C1005.7 0 914.3 0 823 0C731.7 0 640.3 0 548.8 0C457.3 0 365.7 0 274.2 0C182.7 0 91.3 0 45.7 0L0 0Z" fill="#eebbc3" stroke-linecap="round" stroke-linejoin="miter"></path></svg>