<svg id="visual" viewBox="0 0 1920 500" width="1920" height="500" xmlns="http://www.w3.org/2000/svg" xmlns:xlink="http://www.w3.org/1999/xlink" version="1.1"><path d="M0 338L45.7 324C91.3 310 182.7 282 274.2 278.2C365.7 274.3 457.3 294.7 548.8 314C640.3 333.3 731.7 351.7 823 349.2C914.3 346.7 1005.7 323.3 1097 309.8C1188.3 296.3 1279.7 292.7 1371.2 292.5C1462.7 292.3 1554.3 295.7 1645.8 304.8C1737.3 314 1828.7 329 1874.3 336.5L1920 344L1920 501L1874.3 501C1828.7 501 1737.3 501 1645.8 501C1554.3 501 1462.7 501 1371.2 501C1279.7 501 1188.3 501 1097 501C1005.7 501 914.3 501 823 501C731.7 501 640.3 501 548.8 501C457.3 501 365.7 501 274.2 501C182.7 501 91.3 501 45.7 501L0 501Z" fill="#eebbc3" stroke-linecap="round" stroke-linejoin="miter"></path></svg>